<svg width="114" height="114" viewBox="0 0 114 114" fill="none" xmlns="http://www.w3.org/2000/svg">
<rect width="114" height="114" rx="30" fill="#000000"/>
<path d="M33.248 86.52V79.096H42.656C44.7893 79.096 46.432 78.52 47.584 77.368C48.736 76.216 49.312 74.5947 49.312 72.504V47.224H35.168V39.8H57.312V72.696C57.312 76.9627 56.032 80.3333 53.472 82.808C50.912 85.2827 47.456 86.52 43.104 86.52H33.248ZM53.024 33.912C51.4027 33.912 50.1227 33.5067 49.184 32.696C48.2453 31.8427 47.776 30.712 47.776 29.304C47.776 27.896 48.2453 26.7867 49.184 25.976C50.1227 25.1227 51.4027 24.696 53.024 24.696C54.6453 24.696 55.9253 25.1227 56.864 25.976C57.8027 26.7867 58.272 27.896 58.272 29.304C58.272 30.712 57.8027 31.8427 56.864 32.696C55.9253 33.5067 54.6453 33.912 53.024 33.912Z" fill="white"/>
<path d="M67 64.45V87.625C67 88.3875 67.6187 89 68.375 89C68.7688 89 69.15 88.8313 69.4125 88.5312L74.575 82.625L78.2063 89.8937C78.7 90.8812 79.9 91.2813 80.8875 90.7875C81.875 90.2938 82.275 89.0938 81.7812 88.1063L78.2375 81H85.6187C86.3812 81 87 80.3812 87 79.6187C87 79.225 86.8313 78.85 86.5375 78.5875L69.4125 63.3688C69.1437 63.1313 68.8063 63 68.45 63C67.65 63 67 63.65 67 64.45Z" fill="white"/>
</svg>
